# xmcd
#
# Track frame offsets:
# 150
# 13752
# 24190
# 39040
# 50865
# 66990
# 84160
# 98897
# 107415
# 121832
#
# Disc length: 1819 seconds
#
# Revision: 0
# Processed by: cddbd v1.5.2PL0 Copyright (c) Steve Scherf et al.
# Submitted via: Audion 3.0.2 (http://www.panic.com/audion/)
#
DISCID=6f07190a
DTITLE=Child Bite - Fantastic Gusts of Blood
DYEAR=1900
DGENRE=
TTITLE0=Venom Bowl, Kids Guts
TTITLE1=Never Ending Mountain Slammer
TTITLE2=Banana Gorgon
TTITLE3=White Bull From the Sea
TTITLE4=Back To the Deep Fried Egg: His Fleas Became All the People
TTITLE5=The Rainbow Church
TTITLE6=Jewels Rule
TTITLE7=Barracouta Mouth
TTITLE8=In the Bat House
TTITLE9=100 Eyes
EXTD=
EXTT0=
EXTT1=
EXTT2=
EXTT3=
EXTT4=
EXTT5=
EXTT6=
EXTT7=
EXTT8=
EXTT9=
PLAYORDER=
